<?xml version="1.0" encoding="UTF-8"?>
<!DOCTYPE svg PUBLIC "-//W3C//DTD SVG 1.1//EN" "http://www.w3.org/Graphics/SVG/1.1/DTD/svg11.dtd">
<!-- Creator: CorelDRAW Home & Student X8 -->
<svg xmlns="http://www.w3.org/2000/svg" xml:space="preserve" width="30.0901mm" height="6.1746mm" version="1.1" style="shape-rendering:geometricPrecision; text-rendering:geometricPrecision; image-rendering:optimizeQuality; fill-rule:evenodd; clip-rule:evenodd"
viewBox="0 0 644 132"
 xmlns:xlink="http://www.w3.org/1999/xlink">
 <defs>
  <style type="text/css">
   <![CDATA[
    .str0 {stroke:#2B2A29;stroke-width:2.13862}
    .fil1 {fill:none;fill-rule:nonzero}
    .fil0 {fill:#2B2A29;fill-rule:nonzero}
   ]]>
  </style>
 </defs>
 <g id="Livello_x0020_1">
  <metadata id="CorelCorpID_0Corel-Layer"/>
  <path class="fil0" d="M10 118l15 0 -7 -17 -8 17zm-9 13l15 -32 4 0 15 32 -4 0 -4 -10 -18 0 -5 10 -3 0z"/>
  <path id="1" class="fil0" d="M79 102l-12 0 0 12 12 0c3,0 5,0 7,-1 1,-1 2,-3 2,-5 0,-2 -1,-4 -2,-5 -2,-1 -4,-1 -7,-1zm-15 29l0 -32 15 0c4,0 7,0 9,2 2,1 3,3 3,6 0,2 0,4 -1,6 -1,1 -3,2 -5,2 2,1 3,1 4,2 1,1 1,2 1,5 0,0 1,2 1,3 0,3 0,5 1,6l-4 0c0,-1 -1,-3 -1,-5 0,-2 0,-4 0,-4 0,-2 -1,-3 -2,-4 -1,-1 -2,-1 -4,-1l-14 0 0 14 -3 0z"/>
  <path id="2" class="fil0" d="M150 109c-1,-2 -2,-5 -4,-6 -2,-1 -5,-2 -8,-2 -4,0 -7,1 -10,4 -2,2 -4,5 -4,10 0,4 2,7 4,10 2,3 6,4 10,4 3,0 6,-1 8,-3 2,-2 4,-4 4,-7l4 0c-1,4 -3,7 -6,10 -2,2 -6,3 -10,3 -5,0 -9,-2 -12,-5 -3,-3 -5,-7 -5,-12 0,-5 2,-10 5,-13 3,-3 7,-4 12,-4 4,0 8,1 11,3 2,2 4,5 4,8l-3 0z"/>
  <polygon id="3" class="fil0" points="184,131 184,99 187,99 187,112 209,112 209,99 212,99 212,131 209,131 209,115 187,115 187,131 "/>
  <polygon id="4" class="fil0" points="245,131 245,99 248,99 248,131 "/>
  <polygon id="5" class="fil0" points="289,131 289,101 277,101 277,99 305,99 305,101 293,101 293,131 "/>
  <polygon id="6" class="fil0" points="334,131 334,99 359,99 359,102 337,102 337,113 357,113 357,116 337,116 337,128 359,128 359,131 "/>
  <polygon id="7" class="fil0" points="399,131 399,101 386,101 386,99 415,99 415,101 402,101 402,131 "/>
  <polygon id="8" class="fil0" points="452,131 452,101 439,101 439,99 468,99 468,101 455,101 455,131 "/>
  <path id="9" class="fil0" d="M497 99l3 0 0 20c0,3 1,6 3,7 1,2 4,3 8,3 4,0 6,-1 8,-3 2,-1 3,-4 3,-7l0 -20 3 0 0 20c0,4 -1,8 -4,10 -2,2 -6,3 -10,3 -5,0 -8,-1 -11,-3 -2,-2 -3,-6 -3,-10l0 -20z"/>
  <path id="10" class="fil0" d="M572 102l-11 0 0 12 12 0c3,0 5,0 7,-1 1,-1 2,-3 2,-5 0,-2 -1,-4 -2,-5 -2,-1 -4,-1 -8,-1zm-14 29l0 -32 15 0c4,0 7,0 9,2 2,1 3,3 3,6 0,2 0,4 -1,6 -1,1 -3,2 -5,2 2,1 3,1 4,2 1,1 1,2 1,5 0,0 1,2 1,3 0,3 0,5 1,6l-4 0c0,-1 -1,-3 -1,-5 0,-2 0,-4 0,-4 0,-2 -1,-3 -2,-4 -1,-1 -2,-1 -4,-1l-14 0 0 14 -3 0z"/>
  <polygon id="11" class="fil0" points="617,131 617,99 642,99 642,102 620,102 620,113 640,113 640,116 620,116 620,128 642,128 642,131 "/>
  <polygon class="fil0" points="1,68 1,3 8,3 8,62 49,62 49,68 "/>
  <path id="1" class="fil0" d="M149 42l30 0 -15 -34 -15 34zm-19 26l30 -65 8 0 30 65 -7 0 -9 -20 -36 0 -9 20 -7 0z"/>
  <polygon id="2" class="fil0" points="285,68 285,3 293,3 339,61 339,3 345,3 345,68 336,68 291,10 291,68 "/>
  <path id="3" class="fil0" d="M463 3c7,0 13,0 16,1 4,1 8,3 11,5 3,3 6,6 7,10 2,5 3,10 3,16 0,7 -1,12 -3,17 -1,4 -4,8 -8,10 -2,2 -6,4 -10,5 -3,1 -9,1 -16,1l-24 0 0 -65 24 0zm-2 6l-16 0 0 53 18 0c5,0 10,0 13,-1 3,-1 6,-2 8,-3 3,-2 5,-5 7,-9 1,-4 2,-8 2,-14 0,-5 -1,-10 -2,-14 -2,-3 -4,-6 -7,-8 -2,-2 -5,-3 -8,-3 -3,-1 -8,-1 -15,-1z"/>
  <path id="4" class="fil0" d="M588 47l7 0 0 0c0,5 1,9 5,12 4,3 9,4 15,4 7,0 11,-1 15,-3 4,-3 6,-6 6,-10 0,-3 -1,-5 -4,-7 -2,-2 -6,-3 -13,-4l-14 -3c-5,-1 -9,-2 -11,-5 -3,-3 -4,-6 -4,-11 0,-6 2,-10 7,-14 4,-3 10,-5 18,-5 8,0 14,2 18,5 5,4 7,9 7,15l-6 0c0,-4 -2,-8 -6,-10 -3,-3 -7,-4 -13,-4 -6,0 -10,1 -14,3 -3,3 -4,6 -4,10 0,3 1,5 3,7 2,1 7,3 13,4l12 2c6,1 11,3 13,6 3,2 4,6 4,11 0,6 -2,11 -7,15 -4,3 -11,5 -19,5 -9,0 -16,-2 -21,-6 -5,-4 -7,-10 -7,-16l0 -1z"/>
  <polygon id="5" class="fil1 str0" points="1,68 1,3 8,3 8,62 49,62 49,68 "/>
  <path id="6" class="fil1 str0" d="M149 42l30 0 -15 -34 -15 34zm-19 26l30 -65 8 0 30 65 -7 0 -9 -20 -36 0 -9 20 -7 0z"/>
  <polygon id="7" class="fil1 str0" points="285,68 285,3 293,3 339,61 339,3 345,3 345,68 336,68 291,10 291,68 "/>
  <path id="8" class="fil1 str0" d="M463 3c7,0 13,0 16,1 4,1 8,3 11,5 3,3 6,6 7,10 2,5 3,10 3,16 0,7 -1,12 -3,17 -1,4 -4,8 -8,10 -2,2 -6,4 -10,5 -3,1 -9,1 -16,1l-24 0 0 -65 24 0zm-2 6l-16 0 0 53 18 0c5,0 10,0 13,-1 3,-1 6,-2 8,-3 3,-2 5,-5 7,-9 1,-4 2,-8 2,-14 0,-5 -1,-10 -2,-14 -2,-3 -4,-6 -7,-8 -2,-2 -5,-3 -8,-3 -3,-1 -8,-1 -15,-1z"/>
  <path id="9" class="fil1 str0" d="M588 47l7 0 0 0c0,5 1,9 5,12 4,3 9,4 15,4 7,0 11,-1 15,-3 4,-3 6,-6 6,-10 0,-3 -1,-5 -4,-7 -2,-2 -6,-3 -13,-4l-14 -3c-5,-1 -9,-2 -11,-5 -3,-3 -4,-6 -4,-11 0,-6 2,-10 7,-14 4,-3 10,-5 18,-5 8,0 14,2 18,5 5,4 7,9 7,15l-6 0c0,-4 -2,-8 -6,-10 -3,-3 -7,-4 -13,-4 -6,0 -10,1 -14,3 -3,3 -4,6 -4,10 0,3 1,5 3,7 2,1 7,3 13,4l12 2c6,1 11,3 13,6 3,2 4,6 4,11 0,6 -2,11 -7,15 -4,3 -11,5 -19,5 -9,0 -16,-2 -21,-6 -5,-4 -7,-10 -7,-16l0 -1z"/>
 </g>
</svg>
